<svg width="28" height="27" viewBox="0 0 28 27" fill="none" xmlns="http://www.w3.org/2000/svg">
<g id="akar-icons:location">
<g id="Group">
<path id="Vector" d="M14.19 14.625C16.054 14.625 17.565 13.114 17.565 11.25C17.565 9.38604 16.054 7.875 14.19 7.875C12.326 7.875 10.815 9.38604 10.815 11.25C10.815 13.114 12.326 14.625 14.19 14.625Z" stroke="white" stroke-width="2" stroke-linecap="round" stroke-linejoin="round"/>
<path id="Vector_2" d="M14.19 2.25C11.803 2.25 9.51384 3.19821 7.82601 4.88604C6.13818 6.57387 5.18997 8.86305 5.18997 11.25C5.18997 13.3785 5.64222 14.7712 6.87747 16.3125L14.19 24.75L21.5025 16.3125C22.7377 14.7712 23.19 13.3785 23.19 11.25C23.19 8.86305 22.2418 6.57387 20.5539 4.88604C18.8661 3.19821 16.5769 2.25 14.19 2.25V2.25Z" stroke="white" stroke-width="2" stroke-linecap="round" stroke-linejoin="round"/>
</g>
</g>
</svg>
