<svg width="23" height="22" viewBox="0 0 23 22" fill="none" xmlns="http://www.w3.org/2000/svg">
<g id="Group 41">
<path id="Vector" d="M11.69 0C5.6246 0 0.690002 4.9346 0.690002 11C0.690002 17.0654 5.6246 22 11.69 22C17.7554 22 22.69 17.0654 22.69 11C22.69 4.9346 17.7554 0 11.69 0ZM11.69 19.8C6.8379 19.8 2.89 15.8521 2.89 11C2.89 6.1479 6.8379 2.2 11.69 2.2C16.5421 2.2 20.49 6.1479 20.49 11C20.49 15.8521 16.5421 19.8 11.69 19.8Z" fill="white"/>
<path id="Vector_2" d="M12.79 5.50024H10.59V12.1002H17.19V9.90024H12.79V5.50024Z" fill="white"/>
</g>
</svg>
