<svg width="23" height="18" viewBox="0 0 23 18" fill="none" xmlns="http://www.w3.org/2000/svg">
<g id="Group">
<path id="Vector" d="M20.49 17.6H2.89C2.30653 17.6 1.74695 17.3682 1.33437 16.9556C0.921787 16.5431 0.690002 15.9835 0.690002 15.4V2.1043C0.714678 1.53757 0.957312 1.00227 1.36725 0.610171C1.77718 0.218067 2.32273 -0.000535963 2.89 9.86832e-07H20.49C21.0735 9.86832e-07 21.6331 0.231786 22.0456 0.644366C22.4582 1.05695 22.69 1.61652 22.69 2.2V15.4C22.69 15.9835 22.4582 16.5431 22.0456 16.9556C21.6331 17.3682 21.0735 17.6 20.49 17.6ZM2.89 4.2548V15.4H20.49V4.2548L11.69 10.12L2.89 4.2548ZM3.77 2.2L11.69 7.48L19.61 2.2H3.77Z" fill="white"/>
</g>
</svg>
