<?xml version="1.0" encoding="UTF-8"?>
<svg width="387.03" height="400" version="1.1" xmlns="http://www.w3.org/2000/svg">
 <path d="m27.855 368.4v31.265h-10.915v-31.265h-16.61v-6.4058h44.708v6.4058zm33.622-6.4058v37.672h-10.915v-37.672zm33.118 6.4058v31.265h-10.914v-31.265h-16.611v-6.4058h44.711v6.4058zm57.494 24.03h-24.807l-3.5806 7.2344h-11.547l19.126-37.672h16.394l19.414 37.672h-11.331zm-2.5178-5.2744-9.9508-19.613-9.7641 19.613zm45.127-7.5266h25.325l0.15801 7.4791c0 5.4441-1.5668 8.9577-4.7032 10.53-3.1201 1.5727-10.109 2.3554-20.952 2.3554-9.937 0-16.523-1.045-19.758-3.1469-3.2364-2.0989-4.8465-6.3758-4.8465-12.829 0-8.2422 0.647-13.452 1.9409-15.618 1.5966-2.646 4.0264-4.4349 7.2911-5.3592 3.2498-0.91383 8.7862-1.3759 16.596-1.3759 10.223 0 16.824 0.71702 19.801 2.1392 2.977 1.4222 4.4722 4.5884 4.4722 9.475h-11.043c-0.18783-2.4672-1.0226-3.9936-2.4597-4.5958-1.4534-0.59328-5.0775-0.89443-10.887-0.89443-6.328 0-10.34 0.51878-12.036 1.5444-1.6964 1.036-2.5462 3.448-2.5462 7.2629l-0.0432 3.7774 0.0865 4.8314c0 3.7401 0.83482 6.1135 2.5164 7.1316 1.6979 1.0271 5.5948 1.5355 11.72 1.5355 5.954 0 9.736-0.4338 11.362-1.3014 1.61-0.85571 2.415-2.901 2.415-6.1223l0.0433-1.5444h-14.453zm67.949 12.801h-24.806l-3.5806 7.2344h-11.547l19.126-37.672h16.394l19.414 37.672h-11.333zm-2.5164-5.2744-9.9508-19.613-9.7641 19.613zm22.507 12.509v-37.672h28.343c7.0467 0 11.908 0.80052 14.582 2.403 2.661 1.601 3.9982 4.5035 3.9982 8.694 0 3.8059-0.66188 6.4146-1.9991 7.8098-1.3387 1.4028-4.0697 2.3628-8.1975 2.901v0.24439c6.3713 0.26375 9.5631 2.6937 9.5631 7.3196v8.2989h-10.915v-6.8664c0-3.8802-2.9189-5.8226-8.7567-5.8226h-15.703v12.689zm10.915-18.708h15.66c3.7387 0 6.2118-0.43232 7.4344-1.3089 1.2224-0.87655 1.8261-2.6282 1.8261-5.2546 0-2.6863-0.53219-4.4187-1.5817-5.1997-1.0495-0.78262-3.3497-1.1776-6.9171-1.1776h-16.422zm93.472-18.962v37.672h-10.915v-16.277h-26.949v16.277h-10.915v-37.672h10.915v15.374h26.949v-15.374zm-152-362h-18.84l-0.8333 0.34288c-0.1118 0.02395-0.31752 0.10286-0.45916 0.12969-1.9573 0.35925-4.7571-0.09539-7.8798 0.36225-10.507 1.537-13.505 1.1598-26.295 3.7253-23.943 4.806-39.095 10.672-60.473 20.171-12.729 5.6529-38.852 22.567-49.018 31.623l-5.3934 4.6137c-8.7683 6.8097-27.183 27.567-33.771 37.454-1.522 2.2823-2.5819 3.4421-4.0549 5.9494-10.735 18.251-15.402 25.129-22.176 48.462-2.731 9.4081-6.8798 33.391-5.593 44.859 0.27727 2.4612 0.33095 6.3787 0.74537 9.2634 2.9785 20.848 7.5626 35.788 18.032 53.187 1.215 2.0199 2.57 3.9429 3.9728 6.0374l6.2477 8.4644c5.0254 6.434 7.7996 8.3017 12.57 12.743 3.7031 3.445 6.9453 6.4265 11.067 9.5363 13.054 9.8434 23.741 15.685 38.855 21.774 7.1467 2.8786 8.2749 3.053 15.557 5.043 1.4356-2.9904 9.5064-28.325 10.598-31.784-7.0034-3.3601-13.864-2.9561-32.559-13.357-8.8489-4.9208-22.218-15.661-28.322-23.474-3.0396-3.8862-4.3053-4.8821-7.6474-10.015-3.2766-5.0328-5.6617-9.5986-8.1633-15.381-4.8553-11.231-7.4312-23.179-7.4865-39.014-0.1148-31.076 18.962-69.872 38.126-89.017 1.3908-1.3908 1.4773-1.7978 2.6639-3.217 8.706-10.413 29.314-25.824 41.957-33.394 15.11-9.0458 31.243-15.851 48.011-21.448 36.39-12.146 83.44-14.46 119.43-0.0805 16.241 6.4861 30.73 14.524 42.817 26.639 6.9065 6.9231 15.553 18.099 19.379 27.125l6.0822 17.464h34.729l-3.3139-13.168c-1.2492-4.2038-2.74-8.4764-4.3528-12.127-3.457-7.8277-7.0199-15.074-11.634-21.921-11.802-17.51-25.017-29.436-42.264-40.732-17.761-11.629-39.637-18.951-60.434-23.157-5.86-1.1836-19.418-3.1112-25.775-3.0664-1.1971 0.0088-3.0142 0.0805-4.0996-0.6097zm-184.25 163.04h314.34c1.3282-2.5104 2.4761-5.8839 3.6179-8.7429l10.51-26.574h-314.34c-0.70065 3.0157-2.1794 6.0462-3.3616 8.9996l-7.0674 17.656c-1.2284 2.8413-2.3822 6.179-3.6971 8.6612zm73.583 161.28 25.311 24.719c1.8023-3.4048 3.0813-6.7857 4.906-10.399l15.894-31.784c7.1421-14.284 13.935-28.462 20.994-42.574 3.4853-6.9678 6.8336-13.668 10.401-20.798 6.0688-12.136 16.219-32.453 20.806-42.764l10.59-21.198h-41.207c-1.4743 2.7832-2.6833 5.9734-4.1218 8.8296-1.5295 3.0396-2.6982 6.0286-4.3172 9.2215l-8.439 18.048c-2.9263 6.3177-5.4874 12.045-8.4436 18.044l-16.868 36.108c-6.9079 13.692-14.259 31.611-21.186 45.327-1.604 3.1812-2.7653 6.2804-4.32 9.2201zm52.391 7.0601c8.2929 0 19.228-1.7606 26.917-3.1007 10.416-1.8172 20.472-4.3112 30.25-7.4224 2.0557-0.65741 4.0862-1.0986 5.8973-1.7576 3.7478-1.3625 7.5252-2.7653 11.104-4.1993 26.931-10.785 44.306-21.268 66.857-39.098 8.5972-6.7949 15.916-14.526 23.206-22.708l-45.366-0.0372c-4.1711 0.0745-4.9923 1.8321-9.9642 5.3413-2.9904 2.1079-5.5321 3.9489-8.8056 5.9092-1.5876 0.95258-2.9978 1.9305-4.7018 2.9516-22.625 13.536-44.887 21.562-71.896 26.993-1.9722 0.39803-4.3648 0.76922-6.042 1.0241-3.5629 0.53966-3.3169 0.33383-4.4542 3.1976-2.242 5.6261-12.676 28.96-13.003 32.906" fill="#212a72"/>
</svg>