<svg width="15" height="15" viewBox="0 0 15 15" fill="none" xmlns="http://www.w3.org/2000/svg">
<path d="M13.8884 0.578696C13.7686 0.528022 13.6368 0.5 13.4986 0.5L9.25015 0.5C8.69708 0.5 8.24873 0.948349 8.24874 1.50141C8.24873 2.05448 8.69708 2.50283 9.25015 2.50283H11.0809L4.79697 8.79087C4.40589 9.18194 4.40589 9.81601 4.79697 10.2071C5.18805 10.5982 5.82211 10.5982 6.21318 10.2071L12.4972 3.91904V5.74984C12.4972 6.3029 12.9455 6.75125 13.4986 6.75125C14.0516 6.75125 14.5 6.30291 14.5 5.74984V1.50141C14.5 1.2636 14.4171 1.04514 14.2786 0.873371C14.1756 0.745538 14.0417 0.64356 13.8884 0.578696Z" fill="white"/>
<path d="M0.5 4.5C0.5 3.94771 0.947715 3.5 1.5 3.5H5.5V5.5H2.5V12.5H9.5V9.5H11.5V13.5C11.5 14.0523 11.0523 14.5 10.5 14.5H1.5C0.947715 14.5 0.5 14.0523 0.5 13.5V4.5Z" fill="white"/>
</svg>
