<svg width="159" height="303" viewBox="0 0 159 303" fill="none" xmlns="http://www.w3.org/2000/svg">
<path d="M64.0002 3.71521H93.453V8.58102H64.0002V3.71521Z" fill="#C6A25C"/>
<path d="M64.7821 3.71521V7.87718H93.453V8.58102H64V3.71521H64.7821Z" fill="#AD8C51"/>
<path d="M90.2505 7.57961H91.1845C91.3483 7.57961 91.4809 7.44689 91.4809 7.2832V4.5573C91.4809 4.39345 91.3483 4.26086 91.1845 4.26086H90.2505V7.57961Z" fill="#7A8184"/>
<path d="M86.7473 7.57961H85.8133C85.6495 7.57961 85.5169 7.44689 85.5169 7.2832V4.5573C85.5169 4.39345 85.6495 4.26086 85.8133 4.26086H86.7473V7.57961Z" fill="#7A8184"/>
<path d="M70.6968 7.57961H71.6308C71.7945 7.57961 71.9274 7.44689 71.9274 7.2832V4.5573C71.9274 4.39345 71.7945 4.26086 71.6308 4.26086H70.6968V7.57961Z" fill="#7A8184"/>
<path d="M67.1935 7.57961H66.2595C66.0958 7.57961 65.9631 7.44689 65.9631 7.2832V4.5573C65.9631 4.39345 66.0958 4.26086 66.2595 4.26086H67.1935V7.57961Z" fill="#7A8184"/>
<path d="M64.0002 16.5392H93.453V21.405H64.0002V16.5392Z" fill="#C6A25C"/>
<path d="M64.7821 16.5392V20.7011H93.453V21.405H64V16.5392H64.7821Z" fill="#AD8C51"/>
<path d="M90.2505 20.4035H91.1845C91.3483 20.4035 91.4809 20.2709 91.4809 20.1071V17.3811C91.4809 17.2174 91.3483 17.0847 91.1845 17.0847H90.2505V20.4035Z" fill="#7A8184"/>
<path d="M86.7473 20.4035H85.8133C85.6495 20.4035 85.5169 20.2709 85.5169 20.1071V17.3811C85.5169 17.2174 85.6495 17.0847 85.8133 17.0847H86.7473V20.4035Z" fill="#7A8184"/>
<path d="M70.6968 20.4035H71.6308C71.7945 20.4035 71.9274 20.2709 71.9274 20.1071V17.3811C71.9274 17.2174 71.7945 17.0847 71.6308 17.0847H70.6968V20.4035Z" fill="#7A8184"/>
<path d="M67.1935 20.4035H66.2595C66.0958 20.4035 65.9631 20.2709 65.9631 20.1071V17.3811C65.9631 17.2174 66.0958 17.0847 66.2595 17.0847H67.1935V20.4035Z" fill="#7A8184"/>
<path d="M64.0002 29.3628H93.453V34.2286H64.0002V29.3628Z" fill="#C6A25C"/>
<path d="M64.7821 29.3628V33.5249H93.453V34.2288H64V29.3628H64.7821Z" fill="#AD8C51"/>
<path d="M90.2505 33.2272H91.1845C91.3483 33.2272 91.4809 33.0945 91.4809 32.9308V30.2047C91.4809 30.0411 91.3483 29.9083 91.1845 29.9083H90.2505V33.2272Z" fill="#7A8184"/>
<path d="M86.7473 33.2272H85.8133C85.6495 33.2272 85.5169 33.0945 85.5169 32.9308V30.2047C85.5169 30.0411 85.6495 29.9083 85.8133 29.9083H86.7473V33.2272Z" fill="#7A8184"/>
<path d="M70.6968 33.2272H71.6308C71.7945 33.2272 71.9274 33.0945 71.9274 32.9308V30.2047C71.9274 30.0411 71.7945 29.9083 71.6308 29.9083H70.6968V33.2272Z" fill="#7A8184"/>
<path d="M67.1935 33.2272H66.2595C66.0958 33.2272 65.9631 33.0945 65.9631 32.9308V30.2047C65.9631 30.0411 66.0958 29.9083 66.2595 29.9083H67.1935V33.2272Z" fill="#7A8184"/>
<path d="M64.0002 42.1865H93.453V47.0525H64.0002V42.1865Z" fill="#C6A25C"/>
<path d="M64.7821 42.1865V46.3488H93.453V47.0527H64V42.1865H64.7821Z" fill="#AD8C51"/>
<path d="M90.2505 46.051H91.1845C91.3483 46.051 91.4809 45.9185 91.4809 45.7546V43.0287C91.4809 42.8649 91.3483 42.7323 91.1845 42.7323H90.2505V46.051Z" fill="#7A8184"/>
<path d="M86.7473 46.051H85.8133C85.6495 46.051 85.5169 45.9185 85.5169 45.7546V43.0287C85.5169 42.8649 85.6495 42.7323 85.8133 42.7323H86.7473V46.051Z" fill="#7A8184"/>
<path d="M70.6968 46.051H71.6308C71.7945 46.051 71.9274 45.9185 71.9274 45.7546V43.0287C71.9274 42.8649 71.7945 42.7323 71.6308 42.7323H70.6968V46.051Z" fill="#7A8184"/>
<path d="M67.1935 46.051H66.2595C66.0958 46.051 65.9631 45.9185 65.9631 45.7546V43.0287C65.9631 42.8649 66.0958 42.7323 66.2595 42.7323H67.1935V46.051Z" fill="#7A8184"/>
<path d="M64.0002 55.0105H93.453V59.8763H64.0002V55.0105Z" fill="#C6A25C"/>
<path d="M64.7821 55.0105V59.1726H93.453V59.8765H64V55.0105H64.7821Z" fill="#AD8C51"/>
<path d="M90.2505 58.8751H91.1845C91.3483 58.8751 91.4809 58.7423 91.4809 58.5785V55.8526C91.4809 55.6889 91.3483 55.5562 91.1845 55.5562H90.2505V58.8751Z" fill="#7A8184"/>
<path d="M86.7473 58.8751H85.8133C85.6495 58.8751 85.5169 58.7423 85.5169 58.5785V55.8526C85.5169 55.6889 85.6495 55.5562 85.8133 55.5562H86.7473V58.8751Z" fill="#7A8184"/>
<path d="M70.6968 58.8751H71.6308C71.7945 58.8751 71.9274 58.7423 71.9274 58.5785V55.8526C71.9274 55.6889 71.7945 55.5562 71.6308 55.5562H70.6968V58.8751Z" fill="#7A8184"/>
<path d="M67.1935 58.8751H66.2595C66.0958 58.8751 65.9631 58.7423 65.9631 58.5785V55.8526C65.9631 55.6889 66.0958 55.5562 66.2595 55.5562H67.1935V58.8751Z" fill="#7A8184"/>
<path d="M64.0002 67.8342H93.453V72.7H64.0002V67.8342Z" fill="#C6A25C"/>
<path d="M64.7821 67.8342V71.9965H93.453V72.7002H64V67.8342H64.7821Z" fill="#AD8C51"/>
<path d="M90.2505 71.6988H91.1845C91.3483 71.6988 91.4809 71.5661 91.4809 71.4024V68.6765C91.4809 68.5126 91.3483 68.3799 91.1845 68.3799H90.2505V71.6988Z" fill="#7A8184"/>
<path d="M86.7473 71.6988H85.8133C85.6495 71.6988 85.5169 71.5661 85.5169 71.4024V68.6765C85.5169 68.5126 85.6495 68.3799 85.8133 68.3799H86.7473V71.6988Z" fill="#7A8184"/>
<path d="M70.6968 71.6988H71.6308C71.7945 71.6988 71.9274 71.5661 71.9274 71.4024V68.6765C71.9274 68.5126 71.7945 68.3799 71.6308 68.3799H70.6968V71.6988Z" fill="#7A8184"/>
<path d="M67.1935 71.6988H66.2595C66.0958 71.6988 65.9631 71.5661 65.9631 71.4024V68.6765C65.9631 68.5126 66.0958 68.3799 66.2595 68.3799H67.1935V71.6988Z" fill="#7A8184"/>
<path d="M64.0002 80.658H93.453V85.5239H64.0002V80.658Z" fill="#C6A25C"/>
<path d="M64.7821 80.658V84.8202H93.453V85.5239H64V80.658H64.7821Z" fill="#AD8C51"/>
<path d="M90.2505 84.5226H91.1845C91.3483 84.5226 91.4809 84.39 91.4809 84.2262V81.5003C91.4809 81.3364 91.3483 81.2039 91.1845 81.2039H90.2505V84.5226Z" fill="#7A8184"/>
<path d="M86.7473 84.5226H85.8133C85.6495 84.5226 85.5169 84.39 85.5169 84.2262V81.5003C85.5169 81.3364 85.6495 81.2039 85.8133 81.2039H86.7473V84.5226Z" fill="#7A8184"/>
<path d="M70.6968 84.5226H71.6308C71.7945 84.5226 71.9274 84.39 71.9274 84.2262V81.5003C71.9274 81.3364 71.7945 81.2039 71.6308 81.2039H70.6968V84.5226Z" fill="#7A8184"/>
<path d="M67.1935 84.5226H66.2595C66.0958 84.5226 65.9631 84.39 65.9631 84.2262V81.5003C65.9631 81.3364 66.0958 81.2039 66.2595 81.2039H67.1935V84.5226Z" fill="#7A8184"/>
<path d="M64.0002 93.4819H93.453V98.3477H64.0002V93.4819Z" fill="#C6A25C"/>
<path d="M64.7821 93.4819V97.6441H93.453V98.3477H64V93.4819H64.7821Z" fill="#AD8C51"/>
<path d="M90.2505 97.3467H91.1845C91.3483 97.3467 91.4809 97.2139 91.4809 97.0502V94.324C91.4809 94.1603 91.3483 94.0276 91.1845 94.0276H90.2505V97.3467Z" fill="#7A8184"/>
<path d="M86.7473 97.3467H85.8133C85.6495 97.3467 85.5169 97.2139 85.5169 97.0502V94.324C85.5169 94.1603 85.6495 94.0276 85.8133 94.0276H86.7473V97.3467Z" fill="#7A8184"/>
<path d="M70.6968 97.3467H71.6308C71.7945 97.3467 71.9274 97.2139 71.9274 97.0502V94.324C71.9274 94.1603 71.7945 94.0276 71.6308 94.0276H70.6968V97.3467Z" fill="#7A8184"/>
<path d="M67.1935 97.3467H66.2595C66.0958 97.3467 65.9631 97.2139 65.9631 97.0502V94.324C65.9631 94.1603 66.0958 94.0276 66.2595 94.0276H67.1935V97.3467Z" fill="#7A8184"/>
<path d="M86.7473 0H90.2505V101H86.7473V0Z" fill="#9BA5AA"/>
<path d="M67.1936 0H70.6968V101H67.1936V0Z" fill="#9BA5AA"/>
<path d="M89.0865 0H89.5905V101H89.0865V0Z" fill="#CAD6DB"/>
<path d="M69.5391 0H70.0431V101H69.5391V0Z" fill="#CAD6DB"/>
<path d="M64.0002 104.715H93.453V109.581H64.0002V104.715Z" fill="#C6A25C"/>
<path d="M64.7821 104.715V108.877H93.453V109.581H64V104.715H64.7821Z" fill="#AD8C51"/>
<path d="M90.2505 108.58H91.1845C91.3483 108.58 91.4809 108.447 91.4809 108.283V105.557C91.4809 105.393 91.3483 105.261 91.1845 105.261H90.2505V108.58Z" fill="#7A8184"/>
<path d="M86.7473 108.58H85.8133C85.6495 108.58 85.5169 108.447 85.5169 108.283V105.557C85.5169 105.393 85.6495 105.261 85.8133 105.261H86.7473V108.58Z" fill="#7A8184"/>
<path d="M70.6968 108.58H71.6308C71.7945 108.58 71.9274 108.447 71.9274 108.283V105.557C71.9274 105.393 71.7945 105.261 71.6308 105.261H70.6968V108.58Z" fill="#7A8184"/>
<path d="M67.1935 108.58H66.2595C66.0958 108.58 65.9631 108.447 65.9631 108.283V105.557C65.9631 105.393 66.0958 105.261 66.2595 105.261H67.1935V108.58Z" fill="#7A8184"/>
<path d="M64.0002 117.539H93.453V122.405H64.0002V117.539Z" fill="#C6A25C"/>
<path d="M64.7821 117.539V121.701H93.453V122.405H64V117.539H64.7821Z" fill="#AD8C51"/>
<path d="M90.2505 121.403H91.1845C91.3483 121.403 91.4809 121.271 91.4809 121.107V118.381C91.4809 118.217 91.3483 118.085 91.1845 118.085H90.2505V121.403Z" fill="#7A8184"/>
<path d="M86.7473 121.403H85.8133C85.6495 121.403 85.5169 121.271 85.5169 121.107V118.381C85.5169 118.217 85.6495 118.085 85.8133 118.085H86.7473V121.403Z" fill="#7A8184"/>
<path d="M70.6968 121.403H71.6308C71.7945 121.403 71.9274 121.271 71.9274 121.107V118.381C71.9274 118.217 71.7945 118.085 71.6308 118.085H70.6968V121.403Z" fill="#7A8184"/>
<path d="M67.1935 121.403H66.2595C66.0958 121.403 65.9631 121.271 65.9631 121.107V118.381C65.9631 118.217 66.0958 118.085 66.2595 118.085H67.1935V121.403Z" fill="#7A8184"/>
<path d="M64.0002 130.363H93.453V135.229H64.0002V130.363Z" fill="#C6A25C"/>
<path d="M64.7821 130.363V134.525H93.453V135.229H64V130.363H64.7821Z" fill="#AD8C51"/>
<path d="M90.2505 134.227H91.1845C91.3483 134.227 91.4809 134.094 91.4809 133.931V131.205C91.4809 131.041 91.3483 130.908 91.1845 130.908H90.2505V134.227Z" fill="#7A8184"/>
<path d="M86.7473 134.227H85.8133C85.6495 134.227 85.5169 134.094 85.5169 133.931V131.205C85.5169 131.041 85.6495 130.908 85.8133 130.908H86.7473V134.227Z" fill="#7A8184"/>
<path d="M70.6968 134.227H71.6308C71.7945 134.227 71.9274 134.094 71.9274 133.931V131.205C71.9274 131.041 71.7945 130.908 71.6308 130.908H70.6968V134.227Z" fill="#7A8184"/>
<path d="M67.1935 134.227H66.2595C66.0958 134.227 65.9631 134.094 65.9631 133.931V131.205C65.9631 131.041 66.0958 130.908 66.2595 130.908H67.1935V134.227Z" fill="#7A8184"/>
<path d="M64.0002 143.187H93.453V148.052H64.0002V143.187Z" fill="#C6A25C"/>
<path d="M64.7821 143.187V147.349H93.453V148.053H64V143.187H64.7821Z" fill="#AD8C51"/>
<path d="M90.2505 147.051H91.1845C91.3483 147.051 91.4809 146.918 91.4809 146.755V144.029C91.4809 143.865 91.3483 143.732 91.1845 143.732H90.2505V147.051Z" fill="#7A8184"/>
<path d="M86.7473 147.051H85.8133C85.6495 147.051 85.5169 146.918 85.5169 146.755V144.029C85.5169 143.865 85.6495 143.732 85.8133 143.732H86.7473V147.051Z" fill="#7A8184"/>
<path d="M70.6968 147.051H71.6308C71.7945 147.051 71.9274 146.918 71.9274 146.755V144.029C71.9274 143.865 71.7945 143.732 71.6308 143.732H70.6968V147.051Z" fill="#7A8184"/>
<path d="M67.1935 147.051H66.2595C66.0958 147.051 65.9631 146.918 65.9631 146.755V144.029C65.9631 143.865 66.0958 143.732 66.2595 143.732H67.1935V147.051Z" fill="#7A8184"/>
<path d="M64.0002 156.01H93.453V160.876H64.0002V156.01Z" fill="#C6A25C"/>
<path d="M64.7821 156.01V160.173H93.453V160.876H64V156.01H64.7821Z" fill="#AD8C51"/>
<path d="M90.2505 159.875H91.1845C91.3483 159.875 91.4809 159.742 91.4809 159.578V156.853C91.4809 156.689 91.3483 156.556 91.1845 156.556H90.2505V159.875Z" fill="#7A8184"/>
<path d="M86.7473 159.875H85.8133C85.6495 159.875 85.5169 159.742 85.5169 159.578V156.853C85.5169 156.689 85.6495 156.556 85.8133 156.556H86.7473V159.875Z" fill="#7A8184"/>
<path d="M70.6968 159.875H71.6308C71.7945 159.875 71.9274 159.742 71.9274 159.578V156.853C71.9274 156.689 71.7945 156.556 71.6308 156.556H70.6968V159.875Z" fill="#7A8184"/>
<path d="M67.1935 159.875H66.2595C66.0958 159.875 65.9631 159.742 65.9631 159.578V156.853C65.9631 156.689 66.0958 156.556 66.2595 156.556H67.1935V159.875Z" fill="#7A8184"/>
<path d="M64.0002 168.834H93.453V173.7H64.0002V168.834Z" fill="#C6A25C"/>
<path d="M64.7821 168.834V172.997H93.453V173.7H64V168.834H64.7821Z" fill="#AD8C51"/>
<path d="M90.2505 172.699H91.1845C91.3483 172.699 91.4809 172.566 91.4809 172.402V169.676C91.4809 169.513 91.3483 169.38 91.1845 169.38H90.2505V172.699Z" fill="#7A8184"/>
<path d="M86.7473 172.699H85.8133C85.6495 172.699 85.5169 172.566 85.5169 172.402V169.676C85.5169 169.513 85.6495 169.38 85.8133 169.38H86.7473V172.699Z" fill="#7A8184"/>
<path d="M70.6968 172.699H71.6308C71.7945 172.699 71.9274 172.566 71.9274 172.402V169.676C71.9274 169.513 71.7945 169.38 71.6308 169.38H70.6968V172.699Z" fill="#7A8184"/>
<path d="M67.1935 172.699H66.2595C66.0958 172.699 65.9631 172.566 65.9631 172.402V169.676C65.9631 169.513 66.0958 169.38 66.2595 169.38H67.1935V172.699Z" fill="#7A8184"/>
<path d="M64.0002 181.658H93.453V186.524H64.0002V181.658Z" fill="#C6A25C"/>
<path d="M64.7821 181.658V185.82H93.453V186.524H64V181.658H64.7821Z" fill="#AD8C51"/>
<path d="M90.2505 185.523H91.1845C91.3483 185.523 91.4809 185.39 91.4809 185.226V182.5C91.4809 182.336 91.3483 182.204 91.1845 182.204H90.2505V185.523Z" fill="#7A8184"/>
<path d="M86.7473 185.523H85.8133C85.6495 185.523 85.5169 185.39 85.5169 185.226V182.5C85.5169 182.336 85.6495 182.204 85.8133 182.204H86.7473V185.523Z" fill="#7A8184"/>
<path d="M70.6968 185.523H71.6308C71.7945 185.523 71.9274 185.39 71.9274 185.226V182.5C71.9274 182.336 71.7945 182.204 71.6308 182.204H70.6968V185.523Z" fill="#7A8184"/>
<path d="M67.1935 185.523H66.2595C66.0958 185.523 65.9631 185.39 65.9631 185.226V182.5C65.9631 182.336 66.0958 182.204 66.2595 182.204H67.1935V185.523Z" fill="#7A8184"/>
<path d="M64.0002 194.482H93.453V199.348H64.0002V194.482Z" fill="#C6A25C"/>
<path d="M64.7821 194.482V198.644H93.453V199.348H64V194.482H64.7821Z" fill="#AD8C51"/>
<path d="M90.2505 198.347H91.1845C91.3483 198.347 91.4809 198.214 91.4809 198.05V195.324C91.4809 195.16 91.3483 195.028 91.1845 195.028H90.2505V198.347Z" fill="#7A8184"/>
<path d="M86.7473 198.347H85.8133C85.6495 198.347 85.5169 198.214 85.5169 198.05V195.324C85.5169 195.16 85.6495 195.028 85.8133 195.028H86.7473V198.347Z" fill="#7A8184"/>
<path d="M70.6968 198.347H71.6308C71.7945 198.347 71.9274 198.214 71.9274 198.05V195.324C71.9274 195.16 71.7945 195.028 71.6308 195.028H70.6968V198.347Z" fill="#7A8184"/>
<path d="M67.1935 198.347H66.2595C66.0958 198.347 65.9631 198.214 65.9631 198.05V195.324C65.9631 195.16 66.0958 195.028 66.2595 195.028H67.1935V198.347Z" fill="#7A8184"/>
<path d="M86.7473 101H90.2505V202H86.7473V101Z" fill="#9BA5AA"/>
<path d="M67.1936 101H70.6968V202H67.1936V101Z" fill="#9BA5AA"/>
<path d="M89.0865 101H89.5905V202H89.0865V101Z" fill="#CAD6DB"/>
<path d="M69.5391 101H70.0431V202H69.5391V101Z" fill="#CAD6DB"/>
<path d="M64.0002 205.715H93.453V210.581H64.0002V205.715Z" fill="#C6A25C"/>
<path d="M64.7821 205.715V209.877H93.453V210.581H64V205.715H64.7821Z" fill="#AD8C51"/>
<path d="M90.2505 209.58H91.1845C91.3483 209.58 91.4809 209.447 91.4809 209.283V206.557C91.4809 206.393 91.3483 206.261 91.1845 206.261H90.2505V209.58Z" fill="#7A8184"/>
<path d="M86.7473 209.58H85.8133C85.6495 209.58 85.5169 209.447 85.5169 209.283V206.557C85.5169 206.393 85.6495 206.261 85.8133 206.261H86.7473V209.58Z" fill="#7A8184"/>
<path d="M70.6968 209.58H71.6308C71.7945 209.58 71.9274 209.447 71.9274 209.283V206.557C71.9274 206.393 71.7945 206.261 71.6308 206.261H70.6968V209.58Z" fill="#7A8184"/>
<path d="M67.1935 209.58H66.2595C66.0958 209.58 65.9631 209.447 65.9631 209.283V206.557C65.9631 206.393 66.0958 206.261 66.2595 206.261H67.1935V209.58Z" fill="#7A8184"/>
<path d="M64.0002 218.539H93.453V223.405H64.0002V218.539Z" fill="#C6A25C"/>
<path d="M64.7821 218.539V222.701H93.453V223.405H64V218.539H64.7821Z" fill="#AD8C51"/>
<path d="M90.2505 222.403H91.1845C91.3483 222.403 91.4809 222.271 91.4809 222.107V219.381C91.4809 219.217 91.3483 219.085 91.1845 219.085H90.2505V222.403Z" fill="#7A8184"/>
<path d="M86.7473 222.403H85.8133C85.6495 222.403 85.5169 222.271 85.5169 222.107V219.381C85.5169 219.217 85.6495 219.085 85.8133 219.085H86.7473V222.403Z" fill="#7A8184"/>
<path d="M70.6968 222.403H71.6308C71.7945 222.403 71.9274 222.271 71.9274 222.107V219.381C71.9274 219.217 71.7945 219.085 71.6308 219.085H70.6968V222.403Z" fill="#7A8184"/>
<path d="M67.1935 222.403H66.2595C66.0958 222.403 65.9631 222.271 65.9631 222.107V219.381C65.9631 219.217 66.0958 219.085 66.2595 219.085H67.1935V222.403Z" fill="#7A8184"/>
<path d="M64.0002 231.363H93.453V236.229H64.0002V231.363Z" fill="#C6A25C"/>
<path d="M64.7821 231.363V235.525H93.453V236.229H64V231.363H64.7821Z" fill="#AD8C51"/>
<path d="M90.2505 235.227H91.1845C91.3483 235.227 91.4809 235.094 91.4809 234.931V232.205C91.4809 232.041 91.3483 231.908 91.1845 231.908H90.2505V235.227Z" fill="#7A8184"/>
<path d="M86.7473 235.227H85.8133C85.6495 235.227 85.5169 235.094 85.5169 234.931V232.205C85.5169 232.041 85.6495 231.908 85.8133 231.908H86.7473V235.227Z" fill="#7A8184"/>
<path d="M70.6968 235.227H71.6308C71.7945 235.227 71.9274 235.094 71.9274 234.931V232.205C71.9274 232.041 71.7945 231.908 71.6308 231.908H70.6968V235.227Z" fill="#7A8184"/>
<path d="M67.1935 235.227H66.2595C66.0958 235.227 65.9631 235.094 65.9631 234.931V232.205C65.9631 232.041 66.0958 231.908 66.2595 231.908H67.1935V235.227Z" fill="#7A8184"/>
<path d="M64.0002 244.187H93.453V249.052H64.0002V244.187Z" fill="#C6A25C"/>
<path d="M64.7821 244.187V248.349H93.453V249.053H64V244.187H64.7821Z" fill="#AD8C51"/>
<path d="M90.2505 248.051H91.1845C91.3483 248.051 91.4809 247.918 91.4809 247.755V245.029C91.4809 244.865 91.3483 244.732 91.1845 244.732H90.2505V248.051Z" fill="#7A8184"/>
<path d="M86.7473 248.051H85.8133C85.6495 248.051 85.5169 247.918 85.5169 247.755V245.029C85.5169 244.865 85.6495 244.732 85.8133 244.732H86.7473V248.051Z" fill="#7A8184"/>
<path d="M70.6968 248.051H71.6308C71.7945 248.051 71.9274 247.918 71.9274 247.755V245.029C71.9274 244.865 71.7945 244.732 71.6308 244.732H70.6968V248.051Z" fill="#7A8184"/>
<path d="M67.1935 248.051H66.2595C66.0958 248.051 65.9631 247.918 65.9631 247.755V245.029C65.9631 244.865 66.0958 244.732 66.2595 244.732H67.1935V248.051Z" fill="#7A8184"/>
<path d="M64.0002 257.01H93.453V261.876H64.0002V257.01Z" fill="#C6A25C"/>
<path d="M64.7821 257.01V261.173H93.453V261.876H64V257.01H64.7821Z" fill="#AD8C51"/>
<path d="M90.2505 260.875H91.1845C91.3483 260.875 91.4809 260.742 91.4809 260.578V257.853C91.4809 257.689 91.3483 257.556 91.1845 257.556H90.2505V260.875Z" fill="#7A8184"/>
<path d="M86.7473 260.875H85.8133C85.6495 260.875 85.5169 260.742 85.5169 260.578V257.853C85.5169 257.689 85.6495 257.556 85.8133 257.556H86.7473V260.875Z" fill="#7A8184"/>
<path d="M70.6968 260.875H71.6308C71.7945 260.875 71.9274 260.742 71.9274 260.578V257.853C71.9274 257.689 71.7945 257.556 71.6308 257.556H70.6968V260.875Z" fill="#7A8184"/>
<path d="M67.1935 260.875H66.2595C66.0958 260.875 65.9631 260.742 65.9631 260.578V257.853C65.9631 257.689 66.0958 257.556 66.2595 257.556H67.1935V260.875Z" fill="#7A8184"/>
<path d="M64.0002 269.834H93.453V274.7H64.0002V269.834Z" fill="#C6A25C"/>
<path d="M64.7821 269.834V273.997H93.453V274.7H64V269.834H64.7821Z" fill="#AD8C51"/>
<path d="M90.2505 273.699H91.1845C91.3483 273.699 91.4809 273.566 91.4809 273.402V270.676C91.4809 270.513 91.3483 270.38 91.1845 270.38H90.2505V273.699Z" fill="#7A8184"/>
<path d="M86.7473 273.699H85.8133C85.6495 273.699 85.5169 273.566 85.5169 273.402V270.676C85.5169 270.513 85.6495 270.38 85.8133 270.38H86.7473V273.699Z" fill="#7A8184"/>
<path d="M70.6968 273.699H71.6308C71.7945 273.699 71.9274 273.566 71.9274 273.402V270.676C71.9274 270.513 71.7945 270.38 71.6308 270.38H70.6968V273.699Z" fill="#7A8184"/>
<path d="M67.1935 273.699H66.2595C66.0958 273.699 65.9631 273.566 65.9631 273.402V270.676C65.9631 270.513 66.0958 270.38 66.2595 270.38H67.1935V273.699Z" fill="#7A8184"/>
<path d="M64.0002 282.658H93.453V287.524H64.0002V282.658Z" fill="#C6A25C"/>
<path d="M64.7821 282.658V286.82H93.453V287.524H64V282.658H64.7821Z" fill="#AD8C51"/>
<path d="M90.2505 286.523H91.1845C91.3483 286.523 91.4809 286.39 91.4809 286.226V283.5C91.4809 283.336 91.3483 283.204 91.1845 283.204H90.2505V286.523Z" fill="#7A8184"/>
<path d="M86.7473 286.523H85.8133C85.6495 286.523 85.5169 286.39 85.5169 286.226V283.5C85.5169 283.336 85.6495 283.204 85.8133 283.204H86.7473V286.523Z" fill="#7A8184"/>
<path d="M70.6968 286.523H71.6308C71.7945 286.523 71.9274 286.39 71.9274 286.226V283.5C71.9274 283.336 71.7945 283.204 71.6308 283.204H70.6968V286.523Z" fill="#7A8184"/>
<path d="M67.1935 286.523H66.2595C66.0958 286.523 65.9631 286.39 65.9631 286.226V283.5C65.9631 283.336 66.0958 283.204 66.2595 283.204H67.1935V286.523Z" fill="#7A8184"/>
<path d="M64.0002 295.482H93.453V300.348H64.0002V295.482Z" fill="#C6A25C"/>
<path d="M64.7821 295.482V299.644H93.453V300.348H64V295.482H64.7821Z" fill="#AD8C51"/>
<path d="M90.2505 299.347H91.1845C91.3483 299.347 91.4809 299.214 91.4809 299.05V296.324C91.4809 296.16 91.3483 296.028 91.1845 296.028H90.2505V299.347Z" fill="#7A8184"/>
<path d="M86.7473 299.347H85.8133C85.6495 299.347 85.5169 299.214 85.5169 299.05V296.324C85.5169 296.16 85.6495 296.028 85.8133 296.028H86.7473V299.347Z" fill="#7A8184"/>
<path d="M70.6968 299.347H71.6308C71.7945 299.347 71.9274 299.214 71.9274 299.05V296.324C71.9274 296.16 71.7945 296.028 71.6308 296.028H70.6968V299.347Z" fill="#7A8184"/>
<path d="M67.1935 299.347H66.2595C66.0958 299.347 65.9631 299.214 65.9631 299.05V296.324C65.9631 296.16 66.0958 296.028 66.2595 296.028H67.1935V299.347Z" fill="#7A8184"/>
<path d="M86.7473 202H90.2505V303H86.7473V202Z" fill="#9BA5AA"/>
<path d="M67.1936 202H70.6968V303H67.1936V202Z" fill="#9BA5AA"/>
<path d="M89.0865 202H89.5905V303H89.0865V202Z" fill="#CAD6DB"/>
<path d="M69.5391 202H70.0431V303H69.5391V202Z" fill="#CAD6DB"/>
<path d="M97.2216 177.987C97.2211 136.799 97.2217 117.43 97.2217 76.2423C97.2322 73.3489 94.86 70.9758 91.9299 70.9506C83.4146 70.9506 74.9003 70.9506 66.385 70.9506C63.4554 70.9763 61.0827 73.3489 61.0932 76.2423C61.0932 117.43 61.0932 136.8 61.0932 177.987C60.6822 187.385 65.4364 209.185 79.1569 209.175C92.8774 209.185 97.6321 187.386 97.2216 177.987Z" fill="#DBDBDB"/>
<path d="M94.6857 163.141C94.6857 127.735 94.6857 114.148 94.6857 78.7415C94.6952 76.2544 92.6553 74.2146 90.1367 74.1925C82.8172 74.1925 75.4976 74.1925 68.1781 74.1925C65.6595 74.2146 63.6202 76.2539 63.6291 78.7415C63.6291 114.148 63.6291 127.735 63.6291 163.141C63.2758 171.22 67.3629 189.959 79.1569 189.95C90.9519 189.959 95.039 171.22 94.6857 163.141Z" fill="#FBFBFB"/>
<path d="M79.158 193.985L79.158 204.945C87.8024 204.945 94.7073 195.11 94.7073 174.888C94.7068 181.198 88.7667 193.985 79.158 193.985Z" fill="#7AD2FF"/>
<path d="M63.6087 174.888C63.6087 195.11 70.513 204.946 79.158 204.945L79.158 193.985C69.5493 193.985 63.6087 181.199 63.6087 174.888Z" fill="#7AD2FF"/>
<path d="M95.9005 79.6871H94.7038V98.0528H95.9005V79.6871Z" fill="#7AD2FF"/>
<path d="M95.902 102.784H94.7053V121.149H95.902V102.784Z" fill="#7AD2FF"/>
<path d="M95.9008 125.882H94.7042V144.248H95.9008V125.882Z" fill="#7AD2FF"/>
<path d="M95.8998 148.981H94.7031V167.347H95.8998V148.981Z" fill="#7AD2FF"/>
<path d="M63.6069 79.6863H62.4102V98.052H63.6069V79.6863Z" fill="#7AD2FF"/>
<path d="M63.6072 102.784H62.4105V121.15H63.6072V102.784Z" fill="#7AD2FF"/>
<path d="M63.6066 125.882H62.41V144.247H63.6066V125.882Z" fill="#7AD2FF"/>
<path d="M63.6063 148.98H62.4096V167.346H63.6063V148.98Z" fill="#7AD2FF"/>
<path opacity="0.2" d="M90.3499 142.214C90.3499 140.753 89.1657 139.569 87.7043 139.569L67.8863 139.569C66.4249 139.569 65.2407 140.753 65.2407 142.214L65.2401 144.069C65.2401 145.53 66.4249 146.715 67.8858 146.714L87.7037 146.714C89.1651 146.714 90.3494 145.53 90.3494 144.069L90.3499 142.214Z" fill="black"/>
<path d="M91.5551 141.009C91.5551 139.548 90.3709 138.364 88.9095 138.364L69.0915 138.364C67.6301 138.364 66.4459 139.548 66.4459 141.009L66.4454 142.864C66.4454 144.325 67.6301 145.51 69.091 145.509H88.9089C90.3703 145.509 91.5546 144.325 91.5546 142.864L91.5551 141.009Z" fill="#74B91B"/>
<path d="M86.8173 74.1919H86.3422V138.361H86.8173V74.1919Z" fill="#435266"/>
<path d="M85.6706 74.1913H85.1955V138.361H85.6706V74.1913Z" fill="#435266"/>
<path d="M71.7657 74.1917H71.2906V138.361H71.7657V74.1917Z" fill="#435266"/>
<path d="M89.966 139.955H89.2162V140.695H89.966V139.955Z" fill="#435266"/>
<path d="M88.3984 139.955H87.6487V140.696H88.3984V139.955Z" fill="#435266"/>
<path d="M86.8489 139.971L86.0991 139.971L86.099 140.711L86.8488 140.712L86.8489 139.971Z" fill="#435266"/>
<path d="M85.2798 139.973L84.53 139.973L84.5301 140.713L85.2799 140.713L85.2798 139.973Z" fill="#435266"/>
<path d="M68.7971 139.971L68.0473 139.971L68.0472 140.712L68.7971 140.712L68.7971 139.971Z" fill="#435266"/>
<path d="M70.3646 139.972L69.6147 139.972L69.6148 140.712L70.3646 140.712L70.3646 139.972Z" fill="#435266"/>
<path d="M71.9329 139.972L71.183 139.972L71.1831 140.712L71.9329 140.712L71.9329 139.972Z" fill="#435266"/>
<path d="M73.4834 139.955H72.7336V140.695H73.4834V139.955Z" fill="#435266"/>
<path d="M92.1587 195.094C91.5241 195.358 90.1504 201.067 90.4144 201.595C90.6785 202.124 92.9519 197.472 93.1629 196.891C93.4165 196.194 92.7929 194.829 92.1587 195.094Z" fill="#FBFBFB"/>
<path d="M66.1572 195.094C65.5231 194.83 64.8995 196.194 65.153 196.891C65.3645 197.472 67.6375 202.124 67.9015 201.595C68.1655 201.067 66.7913 195.359 66.1572 195.094Z" fill="#FBFBFB"/>
</svg>
