<svg width="159" height="159" viewBox="0 0 159 159" fill="none" xmlns="http://www.w3.org/2000/svg">
<path d="M97.2216 121.987C97.2211 80.7991 97.2217 61.43 97.2217 20.2423C97.2322 17.3489 94.86 14.9758 91.9299 14.9506C83.4146 14.9506 74.9003 14.9506 66.385 14.9506C63.4554 14.9763 61.0827 17.3489 61.0932 20.2423C61.0932 61.43 61.0932 80.7997 61.0932 121.987C60.6822 131.385 65.4364 153.185 79.1569 153.175C92.8774 153.185 97.6321 131.386 97.2216 121.987Z" fill="#DBDBDB"/>
<path d="M94.6857 107.141C94.6857 71.7348 94.6857 58.1476 94.6857 22.7415C94.6952 20.2544 92.6553 18.2146 90.1367 18.1925C82.8172 18.1925 75.4976 18.1925 68.1781 18.1925C65.6595 18.2146 63.6202 20.2539 63.6291 22.7415C63.6291 58.1476 63.6291 71.7348 63.6291 107.141C63.2758 115.22 67.3629 133.959 79.1569 133.95C90.9519 133.959 95.039 115.22 94.6857 107.141Z" fill="#FBFBFB"/>
<path d="M79.158 137.985L79.158 148.945C87.8024 148.945 94.7073 139.11 94.7073 118.888C94.7068 125.198 88.7667 137.985 79.158 137.985Z" fill="#7AD2FF"/>
<path d="M63.6087 118.888C63.6087 139.11 70.513 148.946 79.158 148.945L79.158 137.985C69.5493 137.985 63.6087 125.199 63.6087 118.888Z" fill="#7AD2FF"/>
<path d="M95.9005 23.6871H94.7038V42.0528H95.9005V23.6871Z" fill="#7AD2FF"/>
<path d="M95.902 46.7836H94.7053V65.1492H95.902V46.7836Z" fill="#7AD2FF"/>
<path d="M95.9008 69.8821H94.7042V88.2478H95.9008V69.8821Z" fill="#7AD2FF"/>
<path d="M95.8998 92.9811H94.7031V111.347H95.8998V92.9811Z" fill="#7AD2FF"/>
<path d="M63.6069 23.6863H62.4102V42.052H63.6069V23.6863Z" fill="#7AD2FF"/>
<path d="M63.6072 46.7841H62.4105V65.1497H63.6072V46.7841Z" fill="#7AD2FF"/>
<path d="M63.6066 69.8817H62.41V88.2474H63.6066V69.8817Z" fill="#7AD2FF"/>
<path d="M63.6063 92.9802H62.4096V111.346H63.6063V92.9802Z" fill="#7AD2FF"/>
<path opacity="0.2" d="M90.3499 86.2142C90.3499 84.7529 89.1657 83.5686 87.7043 83.5686L67.8863 83.5686C66.4249 83.5686 65.2407 84.7529 65.2407 86.2143L65.2401 88.0688C65.2401 89.5302 66.4249 90.715 67.8858 90.7144L87.7037 90.7144C89.1651 90.7144 90.3494 89.5302 90.3494 88.0688L90.3499 86.2142Z" fill="black"/>
<path d="M91.5551 85.0092C91.5551 83.5478 90.3709 82.3635 88.9095 82.3635L69.0915 82.3636C67.6301 82.3636 66.4459 83.5478 66.4459 85.0092L66.4454 86.8637C66.4454 88.3251 67.6301 89.5099 69.091 89.5093H88.9089C90.3703 89.5093 91.5546 88.3251 91.5546 86.8637L91.5551 85.0092Z" fill="#74B91B"/>
<path d="M86.8173 18.1919H86.3422V82.3612H86.8173V18.1919Z" fill="#435266"/>
<path d="M85.6706 18.1913H85.1955V82.3605H85.6706V18.1913Z" fill="#435266"/>
<path d="M71.7657 18.1917H71.2906V82.3609H71.7657V18.1917Z" fill="#435266"/>
<path d="M89.966 83.9547H89.2162V84.6948H89.966V83.9547Z" fill="#435266"/>
<path d="M88.3984 83.9554H87.6487V84.6956H88.3984V83.9554Z" fill="#435266"/>
<path d="M86.8489 83.9714L86.0991 83.9713L86.099 84.7115L86.8488 84.7115L86.8489 83.9714Z" fill="#435266"/>
<path d="M85.2798 83.9727L84.53 83.9728L84.5301 84.7129L85.2799 84.7129L85.2798 83.9727Z" fill="#435266"/>
<path d="M68.7971 83.9715L68.0473 83.9714L68.0472 84.7116L68.7971 84.7117L68.7971 83.9715Z" fill="#435266"/>
<path d="M70.3646 83.9719L69.6147 83.9719L69.6148 84.7121L70.3646 84.712L70.3646 83.9719Z" fill="#435266"/>
<path d="M71.9329 83.972L71.183 83.972L71.1831 84.7122L71.9329 84.7122L71.9329 83.972Z" fill="#435266"/>
<path d="M73.4834 83.9552H72.7336V84.6953H73.4834V83.9552Z" fill="#435266"/>
<path d="M92.1587 139.094C91.5241 139.358 90.1504 145.067 90.4144 145.595C90.6785 146.124 92.9519 141.472 93.1629 140.891C93.4165 140.194 92.7929 138.829 92.1587 139.094Z" fill="#FBFBFB"/>
<path d="M66.1572 139.094C65.5231 138.83 64.8995 140.194 65.153 140.891C65.3645 141.472 67.6375 146.124 67.9015 145.595C68.1655 145.067 66.7913 139.359 66.1572 139.094Z" fill="#FBFBFB"/>
</svg>
